HIERARCHY
ROOT pelvis
{
  OFFSET 0 100 0
  CHANNELS 6 Xposition Yposition Zposition Zrotation Xrotation Yrotation
  JOINT pelvis_right_femur
  {
    OFFSET -10.78128 -3.44521 -0.5502486
    CHANNELS 3 Zrotation Xrotation Yrotation
    JOINT right_femur_tibia
    {
      OFFSET -0.8047443 -44.0398 -0.1307829
      CHANNELS 3 Zrotation Xrotation Yrotation
      JOINT right_tibia_foot
      {
        OFFSET 3.006224 -47.83518 -5
        CHANNELS 3 Zrotation Xrotation Yrotation
        End Site
        {
          OFFSET 0 -5 15
        }
      }
    }
  }
  JOINT pelvis_left_femur
  {
    OFFSET 10.78128 -3.44521 -0.5502486
    CHANNELS 3 Zrotation Xrotation Yrotation
    JOINT left_femur_tibia
    {
      OFFSET 0.8047443 -44.0398 -0.1307829
      CHANNELS 3 Zrotation Xrotation Yrotation
      JOINT left_tibia_foot
      {
        OFFSET -4.370144 -48.10324 -4.275266
        CHANNELS 3 Zrotation Xrotation Yrotation
        End Site
        {
          OFFSET 0 -5 15
        }
      }
    }
  }
  JOINT pelvis_spine1
  {
    OFFSET 0 6.468898 -3.129235
    CHANNELS 3 Zrotation Xrotation Yrotation
    JOINT spine1
    {
      OFFSET 0 23.15396 4.99043
      CHANNELS 3 Zrotation Xrotation Yrotation
      JOINT spine2
      {
        OFFSET 0 20.79997 -5.064912
        CHANNELS 3 Zrotation Xrotation Yrotation
        JOINT neck
        {
          OFFSET 0 14.38658 9.616178
          CHANNELS 3 Zrotation Xrotation Yrotation
          End Site
          {
            OFFSET 0 20 0
          }
        }
      }
      JOINT right_manubrium
      {
        OFFSET -5.722621 16.35077 3.967754
        CHANNELS 3 Zrotation Xrotation Yrotation
        JOINT right_clavicle
        {
          OFFSET -13.16364 1.694482 -4.693211
          CHANNELS 3 Zrotation Xrotation Yrotation
          JOINT right_humerus
          {
            OFFSET -28.5034 -0.3100689 -2.792744
            CHANNELS 3 Zrotation Xrotation Yrotation
            JOINT right_radius
            {
              OFFSET -25.15693 0.02248979 -1.271978
              CHANNELS 3 Zrotation Xrotation Yrotation
              End Site
              {
                OFFSET -15 0 0
              }
            }
          }
        }
      }
      JOINT left_manubrium
      {
        OFFSET 5.722621 16.35077 3.967754
        CHANNELS 3 Zrotation Xrotation Yrotation
        JOINT left_clavicle
        {
          OFFSET 13.16364 1.694482 -4.693211
          CHANNELS 3 Zrotation Xrotation Yrotation
          JOINT left_humerus
          {
            OFFSET 29.39168 -1.063119 -2.237045
            CHANNELS 3 Zrotation Xrotation Yrotation
            JOINT left_radius
            {
              OFFSET 24.59957 -0.9528479 0.9047498
              CHANNELS 3 Zrotation Xrotation Yrotation
              End Site
              {
                OFFSET 15 -0 -0
              }
            }
          }
        }
      }
    }
  }
}
MOTION
Frames: 11
Frame Time: 0.0416666666667
0 103.5113 0 -0.5373539 1.377121 0.00705175 6.719693 -21.49288 12.53838 -0 38.63718 -0 -5.566878 -16.79059 -3.739893 -6.413364 10.49927 -23.50507 -0 5.146205 -0 12.51289 -16.41742 29.18848 -3.131162 -3.704005 4.638341 3.112274 9.486763 -7.880569 1.833184 21.63943 6.594088 2.230895 -27.34332 11.01306 6.180983 -20.09309 11.42818 85.77782 37.07029 -18.53791 -0 0 15.25884 -4.236433 8.574023 3.853028 5.645083 -19.30613 -0.256358 -94.35069 25.82209 22.8213 0 0 -15.76306 12.35186 17.34134 1.590377
0.2170061 103.661 1.574034 -0.8407609 1.129767 -0.00105413 6.876339 -21.46237 12.32961 -0 39.25171 -0 -5.91556 -15.99199 -3.721316 -6.06839 10.68291 -23.29681 -0 5.388144 -0 11.46885 -16.94858 28.74733 -2.879356 -3.647068 4.410738 3.0703 9.561466 -7.934869 1.781091 21.66652 6.733607 2.31977 -27.42055 11.03874 6.042715 -20.04926 11.46727 85.86058 36.40139 -18.58785 -0 0 15.13089 -4.750556 8.742828 3.90049 5.708043 -19.6 -0.3199983 -94.65638 25.99134 23.08199 0 0 -15.37245 11.86404 17.98498 2.047287
0.4230409 103.4735 3.604604 -1.169155 2.279788 0.1528337 7.575474 -26.35981 10.69778 -0 31.90157 -0 -5.380389 -14.15305 -3.052223 -5.890675 12.15567 -22.15338 -0 4.432197 -0 7.768593 -20.7155 26.24812 -2.518135 -3.008 4.384988 2.957848 8.985465 -8.075719 1.766724 21.05643 7.103072 2.887802 -27.36587 10.90283 5.76686 -19.29712 11.06967 86.13734 35.63526 -19.97071 -0 0 15.0754 -5.096906 8.827878 3.334908 7.148259 -20.78572 -0.03959345 -94.23949 27.38968 21.93572 0 0 -18.61655 10.09792 18.02887 3.963746
0.6178325 103.2026 5.665152 -1.276636 3.018913 0.3469249 8.068905 -27.74584 10.95453 -0 29.98336 -0 -5.064174 -14.64622 -3.077313 -5.951464 12.56092 -22.30214 -0 3.949025 -0 6.784601 -21.86388 25.8471 -2.474705 -2.932028 4.509444 2.984497 8.555191 -8.113569 1.835744 20.87799 7.13443 2.939072 -27.58709 11.01864 5.835105 -19.07111 10.82609 86.14924 35.96668 -20.4571 -0 0 15.16281 -4.201934 8.641339 2.860066 7.487059 -20.85042 0.3966852 -94.7327 28.76843 22.28762 0 0 -19.60775 9.023474 18.19347 5.522191
0.8152306 102.8226 7.921049 -1.416046 3.772412 0.6278989 8.434864 -29.69499 10.5618 -0 27.20169 -0 -4.908848 -14.00865 -2.80076 -5.966693 13.08315 -22.03494 -0 3.741873 -0 5.19713 -23.22097 24.69246 -2.338205 -2.709533 4.550824 2.92021 8.191751 -8.110959 1.869826 20.63704 7.290915 3.167654 -27.62662 11.05085 5.879335 -18.685 10.59707 86.2558 36.24603 -21.00641 -0 0 15.03938 -3.958319 8.714494 2.600101 7.993251 -21.15356 0.6796938 -94.8009 29.74599 22.12445 0 0 -21.01428 8.123903 18.22404 6.766393
1.022937 102.3749 10.32834 -1.546936 4.230799 0.9606434 8.649089 -30.87988 10.24994 -0 25.5684 -0 -4.907829 -13.36947 -2.590417 -5.945551 13.39877 -21.81134 -0 3.780162 -0 4.046527 -24.00372 23.79151 -2.208039 -2.557978 4.545371 2.859741 7.983741 -8.098219 1.882607 20.48982 7.419585 3.337491 -27.63257 11.07001 5.914729 -18.42142 10.46333 86.35109 36.43729 -21.3397 -0 0 14.89719 -3.928467 8.835738 2.504844 8.288587 -21.35913 0.8288517 -94.83956 30.31655 22.03624 0 0 -21.86299 7.542989 18.26001 7.578658
1.249341 101.8646 12.96038 -1.701864 4.614861 1.353831 8.769002 -32.10703 9.664651 -0 23.79424 -0 -5.028726 -12.2464 -2.273854 -5.884483 13.71865 -21.35871 -0 4.134576 -0 2.782202 -24.64228 22.6014 -2.029502 -2.367798 4.483093 2.780551 7.861645 -8.087705 1.861852 20.3311 7.593778 3.559609 -27.56096 11.03815 5.926536 -18.1222 10.37264 86.50175 36.56551 -21.6653 -0 0 14.63093 -4.260013 9.093262 2.551535 8.584824 -21.65839 0.8615184 -94.61776 30.51374 21.6777 0 0 -22.73708 7.200823 18.20627 8.019002
1.49946 101.3076 15.82086 -1.864233 4.924827 1.797923 8.85087 -33.12029 9.083414 -0 22.26933 -0 -5.203598 -11.10203 -1.968007 -5.811594 13.98244 -20.87493 -0 4.663738 -0 1.648773 -25.05825 21.44687 -1.84364 -2.200167 4.403173 2.709846 7.787416 -8.080642 1.828924 20.19434 7.760127 3.760254 -27.48356 10.99768 5.927255 -17.84976 10.31075 86.67021 36.67491 -21.94489 -0 0 14.32565 -4.665946 9.372545 2.657693 8.812842 -21.93519 0.8510573 -94.34785 30.54179 21.29901 0 0 -23.47237 6.996534 18.12434 8.273624
1.779335 100.7145 18.94963 -2.048942 5.194128 2.291817 8.903349 -34.05194 8.4089 -0 20.74349 -0 -5.454827 -9.781455 -1.62786 -5.716138 14.22959 -20.27199 -0 5.479786 -0 0.513006 -25.29199 20.17567 -1.625072 -2.033465 4.292736 2.641917 7.757006 -8.079954 1.775903 20.06132 7.938318 3.963034 -27.38739 10.9369 5.905215 -17.56676 10.27171 86.8879 36.75755 -22.22258 -0 0 13.92919 -5.217219 9.706012 2.840893 9.003231 -22.23528 0.7874819 -93.96743 30.36593 20.81705 0 0 -24.17573 6.933001 17.9906 8.325335
2.094726 100.1034 22.37263 -2.258092 5.415926 2.829234 8.948899 -34.81201 7.714007 -0 19.33841 -0 -5.77507 -8.395301 -1.284981 -5.59746 14.44111 -19.59625 -0 6.597851 -0 -0.5869719 -25.30934 18.85587 -1.372746 -1.884998 4.158845 2.581726 7.76214 -8.085741 1.707159 19.9422 8.116518 4.148358 -27.29103 10.86716 5.858129 -17.2899 10.25235 87.15265 36.8069 -22.49347 -0 0 13.45972 -5.850073 10.06658 3.085663 9.130065 -22.52847 0.6851615 -93.54938 30.04949 20.32106 0 0 -24.79435 6.955509 17.82672 8.259385
2.452204 99.4994 26.12951 -2.501001 5.580468 3.40269 8.998068 -35.3574 6.988262 -0 18.05349 -0 -6.185971 -6.916651 -0.9369111 -5.443187 14.60854 -18.81706 -0 8.160474 -0 -1.678415 -25.05222 17.44729 -1.065575 -1.758195 3.995102 2.529175 7.810228 -8.100208 1.617838 19.83802 8.296985 4.313078 -27.19345 10.78508 5.772999 -17.01686 10.25578 87.48606 36.79732 -22.76986 -0 0 12.89428 -6.593734 10.46322 3.40981 9.175235 -22.81704 0.5313047 -93.0947 29.57254 19.82217 0 0 -25.31887 7.052564 17.62394 8.088726
